<?xml version="1.0" encoding="utf-8"?>
<!-- Generator: Adobe Illustrator 16.0.0, SVG Export Plug-In . SVG Version: 6.00 Build 0)  -->
<!DOCTYPE svg PUBLIC "-//W3C//DTD SVG 1.1//EN" "http://www.w3.org/Graphics/SVG/1.1/DTD/svg11.dtd">
<svg version="1.1" id="Layer_1" xmlns="http://www.w3.org/2000/svg" xmlns:xlink="http://www.w3.org/1999/xlink" x="0px" y="0px"
	 width="347.348px" height="99.951px" viewBox="0 0 347.348 99.951" enable-background="new 0 0 347.348 99.951"
	 xml:space="preserve">
<g>
	<g>
		<path fill="#F1F1F2" d="M64.206,10.438V7.743c-0.012,0-0.029,0-0.041,0.003v2.695C64.177,10.438,64.194,10.441,64.206,10.438z"/>
		<path fill="#F1F1F2" d="M64.166,3.725c-0.926,0.163-1.811,0.413-2.656,0.738c-0.847,0.328-1.672,0.71-2.494,1.144
			c-3.161,1.583-6.02,3.98-8.581,7.19c-1.744-3.156-4.059-5.553-6.949-7.19c-1.415-0.816-2.972-1.416-4.658-1.798
			c-1.691-0.382-3.486-0.572-5.397-0.572c-7.248,0-13.485,3.186-18.715,9.561v-8.17H0v60.078h15.939V35.522
			c0-5.829,0.407-9.972,1.226-12.422c0.926-2.56,2.342-4.466,4.251-5.721c1.035-0.71,2.082-1.212,3.145-1.513
			c1.063-0.298,2.221-0.45,3.477-0.45c2.07,0,3.679,0.411,4.82,1.226c1.256,0.872,2.126,2.125,2.619,3.763
			c0.325,0.928,0.56,2.316,0.695,4.164c0.133,1.854,0.204,4.285,0.204,7.277v32.86h15.942V35.853c0-2.832,0.104-5.283,0.325-7.358
			c0.216-2.072,0.542-3.76,0.983-5.067c0.813-2.617,2.229-4.606,4.252-5.968c1.903-1.36,4.001-2.043,6.289-2.043V3.725z"/>
	</g>
	<g>
		<path fill="#F1F1F2" d="M86.95,12.797c-1.745-3.156-4.058-5.553-6.95-7.19c-1.416-0.816-2.969-1.416-4.658-1.798
			c-1.692-0.382-3.486-0.572-5.395-0.572c-9.788,0-13.486,3.186-18.713,9.561l-14.715,2.797v49.111h15.936V35.522
			c0-5.829,0.412-9.972,1.228-12.422c0.925-2.56,2.345-4.466,4.251-5.721c1.034-0.71,2.083-1.212,3.148-1.513
			c1.062-0.298,2.217-0.45,3.473-0.45c2.069,0,3.679,0.411,4.82,1.226c1.256,0.872,2.129,2.125,2.62,3.763
			c0.325,0.928,0.558,2.316,0.696,4.164c0.131,1.854,0.201,4.285,0.201,7.277v7.223h15.942c0,0,0-9.657,0-13.74
			C88.833,21.245,88.833,17.612,86.95,12.797z"/>
	</g>
	<g>
		<g>
			<path fill="#F1F1F2" d="M266.777,0v11.772h-24.689V0H266.777z"/>
		</g>
	</g>
	<path fill="#F1F1F2" d="M281.635,33.392c-0.385-2.342-0.955-4.167-1.72-5.477c-1.415-2.619-3.838-4.742-7.271-6.375
		c-1.577-0.762-3.464-1.336-5.645-1.716l-3.509,12.751c0.109,0.11,0.229,0.19,0.364,0.242c0.142,0.057,0.26,0.138,0.368,0.25
		c1.523,1.36,2.288,3.541,2.288,6.536v1.554c-2.884,1.251-8.036,2.559-15.448,3.926c-2.727,0.544-5.135,1.116-7.232,1.716
		c-2.099,0.599-3.856,1.253-5.271,1.96c-2.945,1.421-5.227,3.46-6.871,6.133c-1.583,2.507-2.368,5.504-2.368,8.99
		c0,5.179,1.772,9.397,5.313,12.667c3.492,3.329,8.34,4.99,14.554,4.99c3.433,0,6.725-0.627,9.89-1.883
		c1.308-0.6,2.571-1.278,3.797-2.045c1.231-0.76,2.439-1.686,3.638-2.777v5.395h1.882h11.936h1.55V51.459l0.163-9.403
		C282.15,38.625,282.015,35.734,281.635,33.392z M266.511,54.642v0.166c0,1.908-0.054,3.472-0.161,4.698
		c-0.109,1.228-0.272,2.196-0.488,2.905c-0.607,2.072-1.86,3.785-3.765,5.146c-2.559,1.911-5.286,2.861-8.177,2.861
		c-2.559,0-4.658-0.815-6.289-2.448c-1.687-1.638-2.539-3.543-2.539-5.721c0-2.18,1.068-4.064,3.189-5.643
		c1.312-0.821,4.17-1.716,8.584-2.697c2.239-0.493,4.131-0.93,5.682-1.309c1.558-0.383,2.88-0.766,3.964-1.142V54.642z"/>
	<path fill="#F1F1F2" d="M338.841,28.73c-5.829-5.826-13.16-8.743-21.988-8.743c-5.72,0-10.98,1.279-15.769,3.838l6.371,12.67
		c2.669-2.503,5.809-3.755,9.397-3.755c4.089,0,7.5,1.551,10.222,4.658c2.782,3.104,4.164,7.546,4.164,13.32
		c0,5.998-1.382,10.496-4.164,13.485c-2.674,3.167-6.078,4.745-10.222,4.745c-4.034,0-7.435-1.578-10.21-4.745
		c-2.787-2.989-4.176-7.433-4.176-13.317c0-2.128,0.168-4.064,0.488-5.804L288.9,37.97c-1.638,3.923-2.445,7.925-2.445,12.013
		c0,6.702,1.273,12.453,3.834,17.249c2.504,4.739,6.24,8.34,11.197,10.791c4.906,2.451,10.059,3.676,15.453,3.676
		c8.664,0,15.938-2.94,21.82-8.824c5.726-5.889,8.588-13.271,8.588-22.156C347.348,41.839,344.514,34.508,338.841,28.73z"/>
	<g>
		<path fill="#F1F1F2" d="M111.183,37.8v26.184c0,8.502-0.412,13.896-1.225,16.184c-0.379,1.092-0.943,2.086-1.675,2.982
			c-0.738,0.902-1.624,1.732-2.656,2.498c-2.126,1.469-4.549,2.203-7.278,2.203c-2.396,0-4.383-0.542-5.964-1.632
			c-0.765-0.6-1.405-1.272-1.922-2.003c-0.521-0.738-0.911-1.595-1.185-2.577c-0.109-0.271-0.192-0.629-0.247-1.062H72.684
			c0.272,3.812,0.925,6.895,1.96,9.234c1.419,3.219,3.733,5.695,6.949,7.438c3.161,1.801,6.756,2.7,10.791,2.7
			c4.029,0,7.792-0.928,11.279-2.781c3.541-1.8,6.424-4.332,8.665-7.602v8.99h14.709V37.8H111.183z"/>
	</g>
	<g>
		<rect x="158.369" y="20.28" fill="#F1F1F2" width="12.751" height="11.867"/>
		<rect x="158.369" y="50.126" fill="#F1F1F2" width="12.751" height="27.23"/>
	</g>
	<g>
		<rect x="174.642" y="32.199" fill="#E96A42" width="14.286" height="18.484"/>
	</g>
	<g>
		<rect x="141.666" y="20.28" fill="#D9B527" width="16.704" height="11.867"/>
	</g>
	<g>
		<rect x="266.777" y="-0.049" fill="#93C43D" width="7.933" height="11.867"/>
	</g>
	<path fill="#F1F1F2" d="M229.411,76.992c-3.379-5.506-6.078-9.32-8.096-11.446c-1.957-2.124-4.489-4.087-7.597-5.889
		c6.16-0.864,10.818-3.021,13.979-6.452c3.106-3.486,4.657-7.874,4.657-13.16c0-4.089-1.035-7.794-3.107-11.116
		c-2.018-3.216-4.739-5.48-8.177-6.789c-1.741-0.654-3.975-1.128-6.702-1.427c-2.722-0.3-5.964-0.449-9.723-0.449h-30.005v4.739
		v2.372v4.821c2.948,0,30.603,0.013,32.294,0.041c1.686,0.029,2.83,0.07,3.433,0.122c1.144,0.275,2.174,0.629,3.106,1.063
		c0.922,0.437,1.686,1.038,2.289,1.798c1.252,1.42,1.876,3.326,1.876,5.72c0,2.126-0.462,3.899-1.383,5.317
		c-0.987,1.364-2.348,2.345-4.089,2.945c-1.692,0.599-5.754,0.896-12.18,0.896h-0.249h-0.325h-24.772v27.26h14.226V61.375h2.864
		c3.378,0,5.774,0.278,7.194,0.819c1.41,0.437,2.858,1.388,4.328,2.861c0.655,0.71,1.594,1.921,2.818,3.639
		c1.232,1.715,2.766,3.963,4.621,6.744l10.378,15.365h17.005L229.411,76.992z"/>
	<rect x="72.684" y="39.068" fill="#93C43D" width="16.148" height="41.509"/>
	<path fill="#58A5CD" d="M305.774,38.809l1.681-2.313l-5.785-12.967c0,0-3.796,1.889-6.713,5.202
		c-5.672,5.777-8.502,13.108-8.502,21.988c0,0.047,0.006,0.084,0.006,0.125h16.109c0-0.044-0.01-0.078-0.01-0.125
		C302.561,45.719,303.682,41.801,305.774,38.809z"/>
	<path fill="#F1F1F2" d="M150.02,64.706c-0.698-0.005,1.247-0.014-1.191-0.014c-3.09,0-4.069-1.29-4.069-4.53
		c0-2.262,0.005-2.859,0-5.561V20.597V0.938l-14.608,8.679v10.636H110.91v12.036h19.241V56.55c0,2.598,0.028,4.753,0.09,6.463
		c0.056,1.712,0.146,2.982,0.262,3.808c0.472,2.538,1.155,4.457,2.04,5.759c1,1.354,2.564,2.537,4.693,3.541
		c2.3,0.822,4.722,1.236,7.257,1.236c2.147,0,3.078,0,5.526,0V64.706z"/>
	<path fill="#D9B527" d="M263.826,19.022c-1.876-0.312-3.811-0.508-5.854-0.508c-0.19,0-6.046,0.031-6.236,0.034V31.32
		c0.195-0.011,6.046-0.052,6.236-0.052c0.862,0,1.294,0.244,2.478,0.244c1.188,0,3.041,1.063,3.041,1.063l3.509-12.751
		L263.826,19.022z"/>
</g>
</svg>
