<?xml version="1.0" encoding="UTF-8" standalone="no"?>
<!-- Created with Inkscape (http://www.inkscape.org/) -->

<svg
   xmlns:dc="http://purl.org/dc/elements/1.1/"
   xmlns:cc="http://creativecommons.org/ns#"
   xmlns:rdf="http://www.w3.org/1999/02/22-rdf-syntax-ns#"
   xmlns:svg="http://www.w3.org/2000/svg"
   xmlns="http://www.w3.org/2000/svg"
   version="1.1"
   width="1130.2118"
   height="361.86887"
   id="svg3796">
  <defs
     id="defs3798" />
  <metadata
     id="metadata3801">
    <rdf:RDF>
      <cc:Work
         rdf:about="">
        <dc:format>image/svg+xml</dc:format>
        <dc:type
           rdf:resource="http://purl.org/dc/dcmitype/StillImage" />
        <dc:title></dc:title>
      </cc:Work>
    </rdf:RDF>
  </metadata>
  <g
     transform="translate(38.924837,-499.38048)"
     id="layer1">
    <g
       transform="matrix(6.1270656,0,0,6.1270656,-2090.9066,-2370.0261)"
       id="g3550">
      <g
         transform="matrix(1.25,0,0,-1.25,377.84882,480.05615)"
         id="g3193">
        <path
           d="m 0,0 0,0.971 c -0.005,0 -0.011,0 -0.015,-0.001 l 0,-0.971 C -0.011,0 -0.005,-0.001 0,0"
           id="path3195"
           style="fill:#333434;fill-opacity:1;fill-rule:nonzero;stroke:none" />
      </g>
      <g
         transform="matrix(1.25,0,0,-1.25,377.83057,477.03377)"
         id="g3197">
        <path
           d="m 0,0 c -0.334,-0.059 -0.652,-0.148 -0.957,-0.266 -0.305,-0.118 -0.603,-0.255 -0.898,-0.412 -1.139,-0.57 -2.168,-1.433 -3.091,-2.59 -0.628,1.137 -1.462,2 -2.503,2.59 -0.51,0.294 -1.071,0.51 -1.678,0.648 -0.609,0.137 -1.256,0.206 -1.944,0.206 -2.611,0 -4.858,-1.148 -6.741,-3.444 l 0,2.943 -5.3,0 0,-21.64 5.741,0 0,10.512 c 0,2.099 0.146,3.592 0.441,4.474 0.334,0.922 0.844,1.609 1.532,2.061 0.373,0.256 0.75,0.437 1.132,0.545 0.383,0.107 0.8,0.162 1.252,0.162 0.746,0 1.326,-0.148 1.737,-0.441 0.452,-0.315 0.765,-0.766 0.943,-1.356 0.117,-0.334 0.201,-0.834 0.25,-1.5 0.048,-0.668 0.073,-1.543 0.073,-2.621 l 0,-11.836 5.742,0 0,10.393 c 0,1.02 0.039,1.903 0.118,2.65 0.078,0.746 0.195,1.355 0.354,1.825 0.293,0.943 0.803,1.66 1.531,2.15 0.686,0.49 1.442,0.736 2.266,0.736 L 0,0 z"
           id="path3199"
           style="fill:#333434;fill-opacity:1;fill-rule:nonzero;stroke:none" />
      </g>
      <g
         transform="matrix(1.25,0,0,-1.25,388.08932,481.11815)"
         id="g3201">
        <path
           d="m 0,0 c -0.629,1.137 -1.462,2 -2.504,2.59 -0.51,0.294 -1.069,0.51 -1.678,0.647 -0.609,0.138 -1.255,0.206 -1.943,0.206 -3.525,0 -4.857,-1.147 -6.74,-3.443 l -5.301,-1.008 0,-17.689 5.74,0 0,10.511 c 0,2.1 0.149,3.592 0.443,4.475 0.333,0.922 0.844,1.608 1.531,2.061 0.372,0.255 0.75,0.436 1.134,0.545 0.382,0.107 0.798,0.162 1.251,0.162 0.745,0 1.325,-0.149 1.736,-0.442 0.452,-0.314 0.767,-0.765 0.943,-1.355 0.117,-0.334 0.201,-0.834 0.251,-1.5 0.047,-0.668 0.073,-1.543 0.073,-2.621 l 0,-2.602 5.742,0 0,4.949 c 0,1.471 0,2.78 -0.678,4.514"
           id="path3203"
           style="fill:#333434;fill-opacity:1;fill-rule:nonzero;stroke:none" />
      </g>
      <path
         d="m 469.05407,480.65715 -11.11625,0 0,-5.3 11.11625,0 0,5.3 z"
         id="path3205"
         style="fill:#333434;fill-opacity:1;fill-rule:nonzero;stroke:none" />
      <g
         transform="matrix(1.25,0,0,-1.25,468.93469,499.95852)"
         id="g3207">
        <path
           d="m 0,0 0,-0.06 c 0,-0.687 -0.02,-1.251 -0.059,-1.692 -0.039,-0.442 -0.097,-0.791 -0.175,-1.047 -0.219,-0.746 -0.67,-1.363 -1.356,-1.853 -0.922,-0.689 -1.904,-1.031 -2.945,-1.031 -0.922,0 -1.678,0.294 -2.266,0.882 -0.607,0.59 -0.914,1.277 -0.914,2.061 0,0.785 0.385,1.464 1.149,2.032 0.472,0.296 1.502,0.618 3.091,0.972 0.807,0.177 1.489,0.335 2.047,0.471 C -0.867,0.873 -0.391,1.011 0,1.146 L 0,0 z M 5.447,7.654 C 5.309,8.498 5.104,9.155 4.828,9.627 4.318,10.57 3.445,11.335 2.209,11.923 1.641,12.197 0.961,12.404 0.176,12.541 L -1.088,7.948 C -1.049,7.908 -1.006,7.88 -0.957,7.861 -0.906,7.841 -0.863,7.812 -0.824,7.771 -0.275,7.281 0,6.496 0,5.417 L 0,4.857 C -1.039,4.406 -2.895,3.936 -5.564,3.443 -6.547,3.247 -7.414,3.041 -8.17,2.825 -8.926,2.609 -9.559,2.374 -10.068,2.119 c -1.061,-0.512 -1.883,-1.246 -2.475,-2.209 -0.57,-0.903 -0.853,-1.982 -0.853,-3.238 0,-1.865 0.638,-3.385 1.914,-4.563 1.257,-1.199 3.003,-1.797 5.242,-1.797 1.236,0 2.422,0.226 3.562,0.678 0.471,0.216 0.926,0.46 1.367,0.737 0.444,0.273 0.879,0.607 1.311,1 l 0,-1.943 0.678,0 4.299,0 0.558,0 0,10.362 0.059,3.387 C 5.633,5.77 5.584,6.811 5.447,7.654"
           id="path3209"
           style="fill:#333434;fill-opacity:1;fill-rule:nonzero;stroke:none" />
      </g>
      <g
         transform="matrix(1.25,0,0,-1.25,501.50057,488.29228)"
         id="g3211">
        <path
           d="m 0,0 c -2.1,2.099 -4.74,3.149 -7.92,3.149 -2.06,0 -3.955,-0.461 -5.68,-1.382 l 2.295,-4.564 c 0.961,0.901 2.092,1.353 3.385,1.353 1.473,0 2.701,-0.559 3.682,-1.678 1.002,-1.118 1.5,-2.718 1.5,-4.798 0,-2.16 -0.498,-3.78 -1.5,-4.857 -0.963,-1.141 -2.19,-1.709 -3.682,-1.709 -1.453,0 -2.678,0.568 -3.678,1.709 -1.004,1.077 -1.504,2.677 -1.504,4.797 0,0.766 0.061,1.463 0.176,2.09 l -5.062,2.562 c -0.59,-1.413 -0.881,-2.855 -0.881,-4.327 0,-2.414 0.459,-4.486 1.381,-6.213 0.902,-1.707 2.248,-3.004 4.033,-3.887 1.767,-0.883 3.623,-1.324 5.566,-1.324 3.121,0 5.741,1.059 7.86,3.179 2.062,2.121 3.093,4.78 3.093,7.98 C 3.064,-4.722 2.043,-2.081 0,0"
           id="path3213"
           style="fill:#333434;fill-opacity:1;fill-rule:nonzero;stroke:none" />
      </g>
      <g
         transform="matrix(1.25,0,0,-1.25,398.99994,492.37553)"
         id="g3215">
        <path
           d="m 0,0 0,-9.432 c 0,-3.062 -0.148,-5.005 -0.441,-5.829 -0.137,-0.393 -0.34,-0.751 -0.604,-1.074 -0.266,-0.325 -0.585,-0.624 -0.957,-0.899 -0.766,-0.53 -1.639,-0.794 -2.621,-0.794 -0.863,0 -1.579,0.195 -2.148,0.588 -0.276,0.215 -0.506,0.458 -0.693,0.721 -0.187,0.266 -0.328,0.574 -0.427,0.928 -0.039,0.098 -0.069,0.227 -0.088,0.383 l -5.888,0 c 0.097,-1.373 0.333,-2.484 0.706,-3.326 0.511,-1.16 1.345,-2.052 2.503,-2.68 1.138,-0.648 2.433,-0.973 3.887,-0.973 1.451,0 2.806,0.334 4.062,1.002 1.275,0.649 2.314,1.561 3.121,2.739 l 0,-3.239 5.299,0 L 5.711,0 0,0 z"
           id="path3217"
           style="fill:#333434;fill-opacity:1;fill-rule:nonzero;stroke:none" />
      </g>
      <path
         d="m 425.98657,484.48715 -5.74125,0 0,5.3425 5.74125,0 0,-5.3425 z"
         id="path3219"
         style="fill:#333434;fill-opacity:1;fill-rule:nonzero;stroke:none" />
      <path
         d="m 420.24532,510.1859 5.74125,0 0,-12.26 -5.74125,0 0,12.26 z"
         id="path3221"
         style="fill:#333434;fill-opacity:1;fill-rule:nonzero;stroke:none" />
      <path
         d="m 434.00282,489.8534 -6.43125,0 0,8.3225 6.43125,0 0,-8.3225 z"
         id="path3223"
         style="fill:#ea704d;fill-opacity:1;fill-rule:nonzero;stroke:none" />
      <path
         d="m 420.24532,484.48715 -7.52125,0 0,5.3425 7.52125,0 0,-5.3425 z"
         id="path3225"
         style="fill:#dbb83a;fill-opacity:1;fill-rule:nonzero;stroke:none" />
      <path
         d="m 472.62657,475.33465 -3.57125,0 0,5.3425 3.57125,0 0,-5.3425 z"
         id="path3227"
         style="fill:#97c74a;fill-opacity:1;fill-rule:nonzero;stroke:none" />
      <g
         transform="matrix(1.25,0,0,-1.25,452.23057,510.02202)"
         id="g3229">
        <path
           d="m 0,0 c -1.217,1.983 -2.189,3.357 -2.916,4.123 -0.705,0.766 -1.617,1.473 -2.736,2.121 2.218,0.312 3.896,1.088 5.035,2.324 1.119,1.256 1.678,2.836 1.678,4.741 0,1.472 -0.374,2.807 -1.12,4.003 -0.726,1.159 -1.707,1.974 -2.945,2.446 -0.627,0.235 -1.432,0.406 -2.414,0.513 -0.98,0.109 -2.148,0.163 -3.502,0.163 l -10.807,0 0,-1.707 0,-0.855 0,-1.736 c 1.061,0 11.022,-0.005 11.631,-0.015 0.608,-0.011 1.02,-0.025 1.237,-0.044 0.412,-0.098 0.783,-0.226 1.119,-0.383 0.332,-0.157 0.607,-0.374 0.824,-0.647 0.451,-0.512 0.676,-1.198 0.676,-2.061 0,-0.765 -0.166,-1.404 -0.498,-1.915 C -5.094,10.58 -5.584,10.227 -6.211,10.011 -6.82,9.795 -8.283,9.688 -10.598,9.688 l -0.09,0 -0.117,0 -8.922,0 0,-9.819 5.123,0 0,5.756 1.032,0 c 1.217,0 2.08,-0.1 2.592,-0.295 0.507,-0.157 1.029,-0.5 1.558,-1.03 0.236,-0.256 0.574,-0.693 1.016,-1.311 0.443,-0.618 0.996,-1.427 1.664,-2.429 l 3.738,-5.535 6.125,0 L 0,0 z"
           id="path3231"
           style="fill:#333434;fill-opacity:1;fill-rule:nonzero;stroke:none" />
      </g>
      <path
         d="m 388.93657,511.6359 -7.27,0 0,-18.68875 7.27,0 0,18.68875 z"
         id="path3233"
         style="fill:#97c74a;fill-opacity:1;fill-rule:nonzero;stroke:none" />
      <g
         transform="matrix(1.25,0,0,-1.25,486.61282,492.82965)"
         id="g3235">
        <path
           d="m 0,0 0.605,0.833 -2.084,4.671 c 0,0 -1.367,-0.681 -2.417,-1.874 -2.043,-2.081 -3.063,-4.722 -3.063,-7.92 0,-0.017 0.002,-0.03 0.002,-0.045 l 5.803,0 c 0,0.016 -0.004,0.028 -0.004,0.045 0,1.801 0.404,3.212 1.158,4.29"
           id="path3237"
           style="fill:#60a9d0;fill-opacity:1;fill-rule:nonzero;stroke:none" />
      </g>
      <g
         transform="matrix(1.25,0,0,-1.25,416.48532,504.48977)"
         id="g3239">
        <path
           d="m 0,0 c -0.251,0.002 0.449,0.005 -0.429,0.005 -1.113,0 -1.466,0.465 -1.466,1.632 0,0.814 0.002,1.03 0,2.003 l 0,12.248 0,7.081 -5.261,-3.126 0,-3.831 -6.931,0 0,-4.335 6.931,0 0,-8.739 c 0,-0.936 0.01,-1.712 0.032,-2.329 0.02,-0.616 0.053,-1.074 0.095,-1.371 0.17,-0.914 0.416,-1.605 0.734,-2.074 0.36,-0.488 0.924,-0.914 1.691,-1.275 0.829,-0.297 1.701,-0.446 2.614,-0.446 L 0,-4.557 0,0 z"
           id="path3241"
           style="fill:#333434;fill-opacity:1;fill-rule:nonzero;stroke:none" />
      </g>
      <g
         transform="matrix(1.25,0,0,-1.25,467.7262,483.9209)"
         id="g3243">
        <path
           d="m 0,0 c -0.676,0.112 -1.373,0.183 -2.109,0.183 -0.069,0 -2.178,-0.011 -2.246,-0.012 l 0,-4.601 c 0.07,0.004 2.177,0.019 2.246,0.019 0.31,0 0.466,-0.088 0.892,-0.088 0.428,0 1.096,-0.383 1.096,-0.383 L 1.143,-0.289 0,0 z"
           id="path3245"
           style="fill:#dbb83a;fill-opacity:1;fill-rule:nonzero;stroke:none" />
      </g>
    </g>
  </g>
</svg>
