<?xml version="1.0" encoding="utf-8"?>
<!-- Generator: Adobe Illustrator 16.0.0, SVG Export Plug-In . SVG Version: 6.00 Build 0)  -->
<!DOCTYPE svg PUBLIC "-//W3C//DTD SVG 1.1//EN" "http://www.w3.org/Graphics/SVG/1.1/DTD/svg11.dtd">
<svg version="1.1" id="Layer_1" xmlns="http://www.w3.org/2000/svg" xmlns:xlink="http://www.w3.org/1999/xlink" x="0px" y="0px"
	 width="121.572px" height="35px" viewBox="0 0 121.572 35" enable-background="new 0 0 121.572 35" xml:space="preserve">
<g>
	<g>
		<rect x="22.458" y="2.728" fill="#F1F1F2" width="0.014" height="0.943"/>
		<path fill="#F1F1F2" d="M22.458,1.321c-0.324,0.057-0.634,0.145-0.93,0.258c-0.296,0.115-0.585,0.249-0.873,0.4
			c-1.106,0.554-2.107,1.393-3.003,2.517c-0.61-1.104-1.42-1.943-2.432-2.517c-0.495-0.286-1.04-0.496-1.63-0.629
			c-0.592-0.134-1.22-0.2-1.889-0.2c-2.537,0-4.72,1.115-6.55,3.346V1.637H0v21.027h5.579V12.45c0-2.04,0.143-3.49,0.429-4.348
			C6.332,7.206,6.828,6.539,7.496,6.1C7.858,5.851,8.224,5.675,8.596,5.57c0.372-0.104,0.777-0.158,1.217-0.158
			c0.725,0,1.288,0.144,1.687,0.429c0.439,0.305,0.744,0.744,0.917,1.317c0.114,0.325,0.196,0.811,0.243,1.458
			c0.046,0.649,0.071,1.5,0.071,2.547v11.501h5.58V12.565c0-0.991,0.037-1.849,0.114-2.575c0.076-0.725,0.19-1.316,0.344-1.773
			c0.285-0.916,0.78-1.612,1.488-2.089c0.666-0.476,1.4-0.715,2.201-0.715V1.321z"/>
	</g>
	<g>
		<path fill="#F1F1F2" d="M30.433,4.496C29.822,3.392,29.012,2.553,28,1.979c-0.496-0.286-1.039-0.496-1.63-0.629
			c-0.592-0.134-1.22-0.2-1.888-0.2c-3.426,0-4.72,1.115-6.55,3.346l-5.15,0.979v17.189h5.578V12.45c0-2.04,0.144-3.49,0.43-4.348
			c0.324-0.896,0.821-1.563,1.488-2.002c0.362-0.249,0.729-0.424,1.102-0.529c0.372-0.104,0.776-0.158,1.215-0.158
			c0.724,0,1.288,0.144,1.687,0.429c0.439,0.305,0.745,0.744,0.917,1.317c0.114,0.325,0.195,0.811,0.244,1.458
			c0.046,0.649,0.07,1.5,0.07,2.547v2.528h5.58c0,0,0-3.38,0-4.809S31.091,6.181,30.433,4.496z"/>
	</g>
	<g>
		<g>
			<path fill="#F1F1F2" d="M93.372,0.017v4.12H84.73v-4.12H93.372z"/>
		</g>
	</g>
	<path fill="#F1F1F2" d="M98.572,11.704c-0.135-0.82-0.334-1.458-0.602-1.917c-0.496-0.917-1.344-1.66-2.545-2.231
		c-0.553-0.267-1.213-0.468-1.977-0.601l-1.228,4.463c0.038,0.039,0.08,0.066,0.128,0.084c0.049,0.02,0.09,0.048,0.129,0.087
		c0.533,0.476,0.801,1.239,0.801,2.288v0.544c-1.01,0.438-2.812,0.896-5.407,1.374c-0.954,0.19-1.798,0.391-2.532,0.601
		c-0.734,0.209-1.35,0.438-1.844,0.686c-1.031,0.497-1.83,1.211-2.405,2.146c-0.554,0.878-0.829,1.927-0.829,3.146
		c0,1.812,0.621,3.289,1.859,4.434c1.223,1.166,2.92,1.747,5.094,1.747c1.201,0,2.354-0.22,3.462-0.659
		c0.458-0.21,0.899-0.447,1.329-0.716c0.431-0.266,0.854-0.59,1.273-0.972v1.888h0.658h4.178h0.542V18.028l0.058-3.291
		C98.752,13.536,98.705,12.524,98.572,11.704z M93.279,19.142v0.058c0,0.668-0.02,1.216-0.057,1.645
		c-0.039,0.43-0.096,0.77-0.172,1.018c-0.212,0.725-0.65,1.324-1.316,1.801c-0.896,0.669-1.851,1.002-2.862,1.002
		c-0.896,0-1.63-0.286-2.201-0.857c-0.591-0.573-0.889-1.24-0.889-2.002c0-0.764,0.374-1.423,1.116-1.975
		c0.459-0.288,1.459-0.602,3.004-0.945c0.784-0.172,1.446-0.324,1.989-0.458c0.545-0.134,1.008-0.268,1.388-0.399V19.142z"/>
	<path fill="#F1F1F2" d="M118.594,10.073c-2.039-2.039-4.605-3.06-7.695-3.06c-2.002,0-3.844,0.448-5.52,1.343l2.23,4.435
		c0.934-0.876,2.033-1.314,3.289-1.314c1.432,0,2.625,0.543,3.578,1.63c0.973,1.086,1.457,2.641,1.457,4.662
		c0,2.099-0.484,3.673-1.457,4.72c-0.937,1.108-2.128,1.66-3.578,1.66c-1.412,0-2.602-0.552-3.574-1.66
		c-0.975-1.047-1.461-2.602-1.461-4.661c0-0.745,0.059-1.422,0.171-2.031l-4.919-2.489c-0.573,1.373-0.855,2.774-0.855,4.205
		c0,2.346,0.445,4.358,1.342,6.038c0.876,1.658,2.184,2.918,3.918,3.776c1.718,0.858,3.521,1.286,5.409,1.286
		c3.032,0,5.578-1.029,7.638-3.088c2.004-2.062,3.006-4.646,3.006-7.755C121.572,14.661,120.58,12.095,118.594,10.073z"/>
	<g>
		<path fill="#F1F1F2" d="M38.914,13.247v9.165c0,2.975-0.144,4.863-0.429,5.664c-0.133,0.382-0.33,0.729-0.586,1.043
			c-0.258,0.316-0.568,0.607-0.93,0.875c-0.744,0.514-1.592,0.771-2.547,0.771c-0.838,0-1.534-0.19-2.087-0.572
			c-0.268-0.209-0.492-0.445-0.673-0.701c-0.182-0.258-0.319-0.558-0.415-0.901c-0.038-0.095-0.067-0.22-0.086-0.372h-5.721
			c0.095,1.334,0.324,2.414,0.686,3.232c0.497,1.127,1.307,1.994,2.432,2.604C29.664,34.686,30.922,35,32.334,35
			c1.41,0,2.727-0.324,3.948-0.974c1.239-0.63,2.249-1.517,3.033-2.661v3.146h5.148V13.247H38.914z"/>
	</g>
	<g>
		<rect x="55.429" y="7.115" fill="#F1F1F2" width="4.463" height="4.153"/>
		<rect x="55.429" y="17.562" fill="#F1F1F2" width="4.463" height="9.53"/>
	</g>
	<g>
		<rect x="61.125" y="11.287" fill="#E96A42" width="5" height="6.47"/>
	</g>
	<g>
		<rect x="49.583" y="7.115" fill="#D9B527" width="5.846" height="4.153"/>
	</g>
	<g>
		<rect x="93.372" fill="#93C43D" width="2.776" height="4.153"/>
	</g>
	<path fill="#F1F1F2" d="M80.294,26.965c-1.183-1.928-2.128-3.263-2.833-4.007c-0.686-0.743-1.572-1.431-2.659-2.062
		c2.155-0.303,3.786-1.057,4.893-2.258c1.087-1.22,1.63-2.756,1.63-4.606c0-1.431-0.362-2.728-1.088-3.891
		c-0.705-1.125-1.658-1.918-2.861-2.376c-0.609-0.229-1.391-0.395-2.346-0.5c-0.953-0.105-2.088-0.157-3.402-0.157H61.125v1.659
		v0.83v1.688c1.032,0,10.711,0.004,11.303,0.014c0.59,0.01,0.99,0.024,1.201,0.042c0.4,0.096,0.761,0.22,1.088,0.372
		c0.322,0.153,0.59,0.363,0.801,0.629c0.438,0.497,0.656,1.164,0.656,2.002c0,0.744-0.162,1.365-0.484,1.861
		c-0.346,0.478-0.821,0.821-1.431,1.031c-0.593,0.209-2.014,0.314-4.263,0.314h-0.088h-0.113h-8.67v9.541h4.979v-5.594h1.002
		c1.183,0,2.021,0.098,2.519,0.287c0.493,0.152,1.001,0.486,1.515,1.002c0.229,0.248,0.559,0.672,0.986,1.273
		c0.432,0.6,0.969,1.387,1.617,2.36l3.633,5.378h5.951L80.294,26.965z"/>
	<rect x="25.439" y="13.691" fill="#93C43D" width="5.652" height="14.528"/>
	<path fill="#58A5CD" d="M107.021,13.6l0.588-0.81l-2.025-4.539c0,0-1.328,0.661-2.35,1.821c-1.984,2.022-2.975,4.588-2.975,7.696
		c0,0.016,0.002,0.029,0.002,0.043h5.638c0-0.015-0.003-0.027-0.003-0.043C105.896,16.019,106.289,14.647,107.021,13.6z"/>
	<path fill="#F1F1F2" d="M52.507,22.664c-0.244-0.002,0.437-0.005-0.417-0.005c-1.082,0-1.424-0.452-1.424-1.585
		c0-0.792,0.002-1.002,0-1.947V7.226V0.345l-5.113,3.038v3.723h-6.734v4.212h6.734v8.492c0,0.909,0.01,1.663,0.032,2.263
		c0.02,0.599,0.051,1.043,0.092,1.332c0.165,0.889,0.404,1.561,0.714,2.016c0.35,0.475,0.897,0.889,1.643,1.239
		c0.805,0.288,1.653,0.433,2.54,0.433c0.751,0,1.077,0,1.934,0V22.664z"/>
	<path fill="#D9B527" d="M92.34,6.675c-0.657-0.109-1.334-0.178-2.05-0.178c-0.066,0-2.116,0.011-2.183,0.012v4.47
		c0.068-0.004,2.116-0.018,2.183-0.018c0.302,0,0.453,0.085,0.867,0.085c0.415,0,1.064,0.372,1.064,0.372l1.228-4.463L92.34,6.675z"
		/>
</g>
</svg>
